<?xml version="1.0" encoding="utf-8"?>
<!-- Generator: Adobe Illustrator 19.0.0, SVG Export Plug-In . SVG Version: 6.00 Build 0)  -->
<svg version="1.1" id="Calque_1" xmlns="http://www.w3.org/2000/svg" xmlns:xlink="http://www.w3.org/1999/xlink" x="0px" y="0px"
	 viewBox="0 0 50 50" style="enable-background:new 0 0 50 50;" xml:space="preserve">
<style type="text/css">
	.st0{fill:#333333;}
</style>
<polygon class="st0" points="28.3,0 25,5 21.7,0 19.8,5.7 15.4,1.7 15,7.7 9.6,5 10.9,10.9 5,9.7 7.7,15 1.7,15.4 5.7,19.8 0,21.7 
	5,25 0,28.3 5.7,30.2 1.7,34.7 7.7,35 5,40.4 10.9,39.1 9.6,45 15,42.3 15.4,48.3 19.8,44.3 21.7,50 25,45 28.3,50 30.2,44.3 
	34.6,48.3 35,42.3 40.4,45 39.1,39.1 45,40.4 42.3,35 48.3,34.7 44.3,30.2 50,28.3 45,25 50,21.7 44.3,19.8 48.3,15.4 42.3,15 
	45,9.7 39.1,10.9 40.4,5 35,7.7 34.6,1.7 30.2,5.7 "/>
</svg>
